<svg width="156" height="41" viewBox="0 0 156 41" fill="none" xmlns="http://www.w3.org/2000/svg">
<path d="M10.0002 19.9999L20.0002 9.99991L30.0002 19.9999L20.0002 29.9999L10.0002 19.9999Z" fill="white"/>
<path d="M36.6668 13.3333L30.0002 19.9999V9.99992H20.0002L26.6668 3.33325H36.6668V13.3333Z" fill="white"/>
<path d="M36.6668 26.6666L30.0002 19.9999V29.9999H20.0002L26.6668 36.6666H36.6668V26.6666Z" fill="white"/>
<path d="M3.3335 26.6666L10.0002 19.9999V29.9999H20.0002L13.3335 36.6666H3.3335V26.6666Z" fill="white"/>
<path d="M3.3335 13.3333L10.0002 19.9999V9.99992H20.0002L13.3335 3.33325H3.3335V13.3333Z" fill="white"/>
<path d="M52.104 29.288C50.776 29.288 49.552 29.08 48.432 28.664C47.328 28.232 46.36 27.624 45.528 26.84C44.712 26.056 44.072 25.136 43.608 24.08C43.16 23.024 42.936 21.864 42.936 20.6C42.936 19.336 43.16 18.176 43.608 17.12C44.072 16.064 44.72 15.144 45.552 14.36C46.384 13.576 47.36 12.976 48.48 12.56C49.6 12.128 50.832 11.912 52.176 11.912C53.664 11.912 55 12.16 56.184 12.656C57.384 13.152 58.392 13.872 59.208 14.816L56.712 17.12C56.104 16.48 55.44 16.008 54.72 15.704C54 15.384 53.216 15.224 52.368 15.224C51.552 15.224 50.808 15.352 50.136 15.608C49.464 15.864 48.88 16.232 48.384 16.712C47.904 17.192 47.528 17.76 47.256 18.416C47 19.072 46.872 19.8 46.872 20.6C46.872 21.384 47 22.104 47.256 22.76C47.528 23.416 47.904 23.992 48.384 24.488C48.88 24.968 49.456 25.336 50.112 25.592C50.784 25.848 51.52 25.976 52.32 25.976C53.088 25.976 53.832 25.856 54.552 25.616C55.288 25.36 56 24.936 56.688 24.344L58.896 27.152C57.984 27.84 56.92 28.368 55.704 28.736C54.504 29.104 53.304 29.288 52.104 29.288ZM55.344 26.648V20.336H58.896V27.152L55.344 26.648ZM68.3876 29.192C67.0116 29.192 65.7876 28.904 64.7156 28.328C63.6596 27.752 62.8196 26.968 62.1956 25.976C61.5876 24.968 61.2836 23.824 61.2836 22.544C61.2836 21.248 61.5876 20.104 62.1956 19.112C62.8196 18.104 63.6596 17.32 64.7156 16.76C65.7876 16.184 67.0116 15.896 68.3876 15.896C69.7476 15.896 70.9636 16.184 72.0356 16.76C73.1076 17.32 73.9476 18.096 74.5556 19.088C75.1636 20.08 75.4676 21.232 75.4676 22.544C75.4676 23.824 75.1636 24.968 74.5556 25.976C73.9476 26.968 73.1076 27.752 72.0356 28.328C70.9636 28.904 69.7476 29.192 68.3876 29.192ZM68.3876 26.12C69.0116 26.12 69.5716 25.976 70.0676 25.688C70.5636 25.4 70.9556 24.992 71.2436 24.464C71.5316 23.92 71.6756 23.28 71.6756 22.544C71.6756 21.792 71.5316 21.152 71.2436 20.624C70.9556 20.096 70.5636 19.688 70.0676 19.4C69.5716 19.112 69.0116 18.968 68.3876 18.968C67.7636 18.968 67.2036 19.112 66.7076 19.4C66.2116 19.688 65.8116 20.096 65.5076 20.624C65.2196 21.152 65.0756 21.792 65.0756 22.544C65.0756 23.28 65.2196 23.92 65.5076 24.464C65.8116 24.992 66.2116 25.4 66.7076 25.688C67.2036 25.976 67.7636 26.12 68.3876 26.12ZM83.5142 29.192C82.2982 29.192 81.2022 28.92 80.2262 28.376C79.2502 27.816 78.4742 27.04 77.8982 26.048C77.3382 25.056 77.0582 23.888 77.0582 22.544C77.0582 21.184 77.3382 20.008 77.8982 19.016C78.4742 18.024 79.2502 17.256 80.2262 16.712C81.2022 16.168 82.2982 15.896 83.5142 15.896C84.6022 15.896 85.5542 16.136 86.3702 16.616C87.1862 17.096 87.8182 17.824 88.2662 18.8C88.7142 19.776 88.9382 21.024 88.9382 22.544C88.9382 24.048 88.7222 25.296 88.2902 26.288C87.8582 27.264 87.2342 27.992 86.4182 28.472C85.6182 28.952 84.6502 29.192 83.5142 29.192ZM84.1622 26.12C84.7702 26.12 85.3222 25.976 85.8182 25.688C86.3142 25.4 86.7062 24.992 86.9942 24.464C87.2982 23.92 87.4502 23.28 87.4502 22.544C87.4502 21.792 87.2982 21.152 86.9942 20.624C86.7062 20.096 86.3142 19.688 85.8182 19.4C85.3222 19.112 84.7702 18.968 84.1622 18.968C83.5382 18.968 82.9782 19.112 82.4822 19.4C81.9862 19.688 81.5862 20.096 81.2822 20.624C80.9942 21.152 80.8502 21.792 80.8502 22.544C80.8502 23.28 80.9942 23.92 81.2822 24.464C81.5862 24.992 81.9862 25.4 82.4822 25.688C82.9782 25.976 83.5382 26.12 84.1622 26.12ZM87.5462 29V26.36L87.6182 22.52L87.3782 18.704V11.192H91.1222V29H87.5462ZM99.8914 29L92.6434 12.2H96.8434L103.179 27.08H100.707L107.139 12.2H111.003L103.731 29H99.8914ZM119.101 29V26.48L118.861 25.928V21.416C118.861 20.616 118.613 19.992 118.117 19.544C117.637 19.096 116.893 18.872 115.885 18.872C115.197 18.872 114.517 18.984 113.845 19.208C113.189 19.416 112.629 19.704 112.165 20.072L110.821 17.456C111.525 16.96 112.373 16.576 113.365 16.304C114.357 16.032 115.365 15.896 116.389 15.896C118.357 15.896 119.885 16.36 120.973 17.288C122.061 18.216 122.605 19.664 122.605 21.632V29H119.101ZM115.165 29.192C114.157 29.192 113.293 29.024 112.573 28.688C111.853 28.336 111.301 27.864 110.917 27.272C110.533 26.68 110.341 26.016 110.341 25.28C110.341 24.512 110.525 23.84 110.893 23.264C111.277 22.688 111.877 22.24 112.693 21.92C113.509 21.584 114.573 21.416 115.885 21.416H119.317V23.6H116.293C115.413 23.6 114.805 23.744 114.469 24.032C114.149 24.32 113.989 24.68 113.989 25.112C113.989 25.592 114.173 25.976 114.541 26.264C114.925 26.536 115.445 26.672 116.101 26.672C116.725 26.672 117.285 26.528 117.781 26.24C118.277 25.936 118.637 25.496 118.861 24.92L119.437 26.648C119.165 27.48 118.669 28.112 117.949 28.544C117.229 28.976 116.301 29.192 115.165 29.192ZM125.994 29V16.088H129.738V29H125.994ZM127.866 14.288C127.178 14.288 126.618 14.088 126.186 13.688C125.754 13.288 125.538 12.792 125.538 12.2C125.538 11.608 125.754 11.112 126.186 10.712C126.618 10.312 127.178 10.112 127.866 10.112C128.554 10.112 129.114 10.304 129.546 10.688C129.978 11.056 130.194 11.536 130.194 12.128C130.194 12.752 129.978 13.272 129.546 13.688C129.13 14.088 128.57 14.288 127.866 14.288ZM137.556 29.192C136.452 29.192 135.388 29.064 134.364 28.808C133.356 28.536 132.556 28.2 131.964 27.8L133.212 25.112C133.804 25.48 134.5 25.784 135.3 26.024C136.116 26.248 136.916 26.36 137.7 26.36C138.564 26.36 139.172 26.256 139.524 26.048C139.892 25.84 140.076 25.552 140.076 25.184C140.076 24.88 139.932 24.656 139.644 24.512C139.372 24.352 139.004 24.232 138.54 24.152C138.076 24.072 137.564 23.992 137.004 23.912C136.46 23.832 135.908 23.728 135.348 23.6C134.788 23.456 134.276 23.248 133.812 22.976C133.348 22.704 132.972 22.336 132.684 21.872C132.412 21.408 132.276 20.808 132.276 20.072C132.276 19.256 132.508 18.536 132.972 17.912C133.452 17.288 134.14 16.8 135.036 16.448C135.932 16.08 137.004 15.896 138.252 15.896C139.132 15.896 140.028 15.992 140.94 16.184C141.852 16.376 142.612 16.656 143.22 17.024L141.972 19.688C141.348 19.32 140.716 19.072 140.076 18.944C139.452 18.8 138.844 18.728 138.252 18.728C137.42 18.728 136.812 18.84 136.428 19.064C136.044 19.288 135.852 19.576 135.852 19.928C135.852 20.248 135.988 20.488 136.26 20.648C136.548 20.808 136.924 20.936 137.388 21.032C137.852 21.128 138.356 21.216 138.9 21.296C139.46 21.36 140.02 21.464 140.58 21.608C141.14 21.752 141.644 21.96 142.092 22.232C142.556 22.488 142.932 22.848 143.22 23.312C143.508 23.76 143.652 24.352 143.652 25.088C143.652 25.888 143.412 26.6 142.932 27.224C142.452 27.832 141.756 28.312 140.844 28.664C139.948 29.016 138.852 29.192 137.556 29.192Z" fill="white"/>
</svg>
