<svg width="108" height="52" viewBox="0 0 108 52" fill="none" xmlns="http://www.w3.org/2000/svg">
<path d="M47.792 43V40.48L54.272 34.36C54.784 33.896 55.16 33.48 55.4 33.112C55.64 32.744 55.8 32.408 55.88 32.104C55.976 31.8 56.024 31.52 56.024 31.264C56.024 30.592 55.792 30.08 55.328 29.728C54.88 29.36 54.216 29.176 53.336 29.176C52.632 29.176 51.976 29.312 51.368 29.584C50.776 29.856 50.272 30.28 49.856 30.856L47.024 29.032C47.664 28.072 48.56 27.312 49.712 26.752C50.864 26.192 52.192 25.912 53.696 25.912C54.944 25.912 56.032 26.12 56.96 26.536C57.904 26.936 58.632 27.504 59.144 28.24C59.672 28.976 59.936 29.856 59.936 30.88C59.936 31.424 59.864 31.968 59.72 32.512C59.592 33.04 59.32 33.6 58.904 34.192C58.504 34.784 57.912 35.448 57.128 36.184L51.752 41.248L51.008 39.832H60.488V43H47.792ZM69.2923 43.288C67.9163 43.288 66.6843 42.952 65.5963 42.28C64.5083 41.592 63.6523 40.6 63.0283 39.304C62.4043 38.008 62.0923 36.44 62.0923 34.6C62.0923 32.76 62.4043 31.192 63.0283 29.896C63.6523 28.6 64.5083 27.616 65.5963 26.944C66.6843 26.256 67.9163 25.912 69.2923 25.912C70.6843 25.912 71.9163 26.256 72.9883 26.944C74.0763 27.616 74.9323 28.6 75.5563 29.896C76.1803 31.192 76.4923 32.76 76.4923 34.6C76.4923 36.44 76.1803 38.008 75.5563 39.304C74.9323 40.6 74.0763 41.592 72.9883 42.28C71.9163 42.952 70.6843 43.288 69.2923 43.288ZM69.2923 40C69.9483 40 70.5163 39.816 70.9963 39.448C71.4923 39.08 71.8763 38.496 72.1483 37.696C72.4363 36.896 72.5803 35.864 72.5803 34.6C72.5803 33.336 72.4363 32.304 72.1483 31.504C71.8763 30.704 71.4923 30.12 70.9963 29.752C70.5163 29.384 69.9483 29.2 69.2923 29.2C68.6523 29.2 68.0843 29.384 67.5883 29.752C67.1083 30.12 66.7243 30.704 66.4363 31.504C66.1643 32.304 66.0283 33.336 66.0283 34.6C66.0283 35.864 66.1643 36.896 66.4363 37.696C66.7243 38.496 67.1083 39.08 67.5883 39.448C68.0843 39.816 68.6523 40 69.2923 40ZM85.5813 43.288C84.2053 43.288 82.9733 42.952 81.8853 42.28C80.7973 41.592 79.9413 40.6 79.3173 39.304C78.6933 38.008 78.3813 36.44 78.3813 34.6C78.3813 32.76 78.6933 31.192 79.3173 29.896C79.9413 28.6 80.7973 27.616 81.8853 26.944C82.9733 26.256 84.2053 25.912 85.5813 25.912C86.9733 25.912 88.2053 26.256 89.2773 26.944C90.3653 27.616 91.2213 28.6 91.8453 29.896C92.4693 31.192 92.7813 32.76 92.7813 34.6C92.7813 36.44 92.4693 38.008 91.8453 39.304C91.2213 40.6 90.3653 41.592 89.2773 42.28C88.2053 42.952 86.9733 43.288 85.5813 43.288ZM85.5813 40C86.2373 40 86.8053 39.816 87.2853 39.448C87.7813 39.08 88.1653 38.496 88.4373 37.696C88.7253 36.896 88.8693 35.864 88.8693 34.6C88.8693 33.336 88.7253 32.304 88.4373 31.504C88.1653 30.704 87.7813 30.12 87.2853 29.752C86.8053 29.384 86.2373 29.2 85.5813 29.2C84.9413 29.2 84.3733 29.384 83.8773 29.752C83.3973 30.12 83.0133 30.704 82.7253 31.504C82.4533 32.304 82.3173 33.336 82.3173 34.6C82.3173 35.864 82.4533 36.896 82.7253 37.696C83.0133 38.496 83.3973 39.08 83.8773 39.448C84.3733 39.816 84.9413 40 85.5813 40ZM94.4326 43V40.48L100.913 34.36C101.425 33.896 101.801 33.48 102.041 33.112C102.281 32.744 102.441 32.408 102.521 32.104C102.617 31.8 102.665 31.52 102.665 31.264C102.665 30.592 102.433 30.08 101.969 29.728C101.521 29.36 100.857 29.176 99.9766 29.176C99.2726 29.176 98.6166 29.312 98.0086 29.584C97.4166 29.856 96.9126 30.28 96.4966 30.856L93.6646 29.032C94.3046 28.072 95.2006 27.312 96.3526 26.752C97.5046 26.192 98.8326 25.912 100.337 25.912C101.585 25.912 102.673 26.12 103.601 26.536C104.545 26.936 105.273 27.504 105.785 28.24C106.313 28.976 106.577 29.856 106.577 30.88C106.577 31.424 106.505 31.968 106.361 32.512C106.233 33.04 105.961 33.6 105.545 34.192C105.145 34.784 104.553 35.448 103.769 36.184L98.3926 41.248L97.6486 39.832H107.129V43H94.4326Z" fill="black"/>
<path d="M48.888 18V6.8H56.008V7.824H49.736L50.04 7.52L50.056 18H48.888ZM61.425 18.096C60.5823 18.096 59.7983 17.9573 59.073 17.68C58.3583 17.392 57.7343 16.992 57.201 16.48C56.6783 15.9573 56.2677 15.3547 55.969 14.672C55.681 13.9787 55.537 13.2213 55.537 12.4C55.537 11.5787 55.681 10.8267 55.969 10.144C56.2677 9.45067 56.6783 8.848 57.201 8.336C57.7343 7.81333 58.3583 7.41333 59.073 7.136C59.7877 6.848 60.5717 6.704 61.425 6.704C62.2677 6.704 63.0463 6.848 63.761 7.136C64.4757 7.41333 65.0943 7.808 65.617 8.32C66.1503 8.832 66.561 9.43467 66.849 10.128C67.1477 10.8213 67.297 11.5787 67.297 12.4C67.297 13.2213 67.1477 13.9787 66.849 14.672C66.561 15.3653 66.1503 15.968 65.617 16.48C65.0943 16.992 64.4757 17.392 63.761 17.68C63.0463 17.9573 62.2677 18.096 61.425 18.096ZM61.425 17.04C62.097 17.04 62.7157 16.928 63.281 16.704C63.857 16.4693 64.353 16.144 64.769 15.728C65.1957 15.3013 65.5263 14.8107 65.761 14.256C65.9957 13.6907 66.113 13.072 66.113 12.4C66.113 11.728 65.9957 11.1147 65.761 10.56C65.5263 9.99467 65.1957 9.504 64.769 9.088C64.353 8.66133 63.857 8.336 63.281 8.112C62.7157 7.87733 62.097 7.76 61.425 7.76C60.753 7.76 60.129 7.87733 59.553 8.112C58.977 8.336 58.4757 8.66133 58.049 9.088C57.633 9.504 57.3023 9.99467 57.057 10.56C56.8223 11.1147 56.705 11.728 56.705 12.4C56.705 13.0613 56.8223 13.6747 57.057 14.24C57.3023 14.8053 57.633 15.3013 58.049 15.728C58.4757 16.144 58.977 16.4693 59.553 16.704C60.129 16.928 60.753 17.04 61.425 17.04ZM77.2499 17.44V7.824H71.8899L71.7939 10.544C71.7619 11.3867 71.7085 12.1973 71.6339 12.976C71.5699 13.744 71.4632 14.4373 71.3139 15.056C71.1752 15.664 70.9832 16.16 70.7379 16.544C70.5032 16.928 70.1939 17.152 69.8099 17.216L68.5139 16.976C68.9405 16.9973 69.2925 16.8427 69.5699 16.512C69.8579 16.1813 70.0765 15.7173 70.2259 15.12C70.3859 14.5227 70.5032 13.824 70.5779 13.024C70.6525 12.224 70.7059 11.36 70.7379 10.432L70.8659 6.8H78.4179V17.44H77.2499ZM68.0979 20.512L68.1139 16.976H80.0979V20.512H78.9939V18H69.2179L69.2019 20.512H68.0979Z" fill="black"/>
<path d="M21.4438 35.9354L14.4917 28.9834L17.3313 26.1438L21.4438 30.2563L29.6688 22.0313L32.5083 24.8709L21.4438 35.9354ZM9.79167 43.0834C8.71458 43.0834 7.79253 42.6998 7.02552 41.9328C6.25851 41.1658 5.875 40.2438 5.875 39.1667V11.75C5.875 10.6729 6.25851 9.75089 7.02552 8.98387C7.79253 8.21686 8.71458 7.83335 9.79167 7.83335H11.75V3.91669H15.6667V7.83335H31.3333V3.91669H35.25V7.83335H37.2083C38.2854 7.83335 39.2075 8.21686 39.9745 8.98387C40.7415 9.75089 41.125 10.6729 41.125 11.75V39.1667C41.125 40.2438 40.7415 41.1658 39.9745 41.9328C39.2075 42.6998 38.2854 43.0834 37.2083 43.0834H9.79167ZM9.79167 39.1667H37.2083V19.5834H9.79167V39.1667ZM9.79167 15.6667H37.2083V11.75H9.79167V15.6667Z" fill="black"/>
</svg>
