<svg width="103" height="103" viewBox="0 0 103 103" fill="none" xmlns="http://www.w3.org/2000/svg">
<g clip-path="url(#clip0_6_158)">
<path d="M67.3105 0H35.6895C6.83233 0 0 6.83233 0 35.6895V67.3105C0 96.1677 6.83233 103 35.6895 103H67.3105C96.1677 103 103 96.1677 103 67.3105V35.6895C103 6.83233 96.0947 0 67.3105 0ZM83.1553 73.4862H75.6707C72.8382 73.4862 71.9627 71.2331 66.8727 66.0745C62.4395 61.7828 60.4782 61.2035 59.3881 61.2035C57.8602 61.2035 57.4225 61.6412 57.4225 63.7484V70.5078C57.4225 72.3275 56.8431 73.4175 52.045 73.4175C44.1226 73.4175 35.3247 68.6195 29.149 59.6756C19.8447 46.5946 17.2954 36.7796 17.2954 34.7453C17.2954 33.6552 17.7332 32.6381 19.8404 32.6381H27.325C29.2134 32.6381 29.943 33.5093 30.6725 35.5436C34.3762 46.2298 40.5562 55.6071 43.1012 55.6071C44.0454 55.6071 44.4831 55.1694 44.4831 52.7746V41.7193C44.1913 36.6294 41.5004 36.1959 41.5004 34.3805C41.5004 33.505 42.23 32.6338 43.3887 32.6338H55.1651C56.7659 32.6338 57.3452 33.505 57.3452 35.3934V50.2983C57.3452 51.8948 58.0748 52.4785 58.5083 52.4785C59.4525 52.4785 60.255 51.8948 61.9974 50.1524C67.3792 44.1183 71.2288 34.814 71.2288 34.814C71.7395 33.7239 72.6107 32.7068 74.5033 32.7068H81.988C84.2411 32.7068 84.7518 33.8655 84.2411 35.4663C83.297 39.831 74.1385 52.766 74.1385 52.766C73.3403 54.075 73.0485 54.6544 74.1385 56.1135C74.9368 57.2036 77.5547 59.4567 79.3014 61.491C82.4987 65.126 84.9664 68.1774 85.623 70.2889C86.3526 72.3918 85.2582 73.4819 83.151 73.4819L83.1553 73.4862Z" fill="black"/>
</g>
<defs>
<clipPath id="clip0_6_158">
<rect width="103" height="103" fill="white"/>
</clipPath>
</defs>
</svg>
